<svg xmlns="http://www.w3.org/2000/svg" width="142.889" height="144.315" viewBox="0 0 142.889 144.315">
  <path id="facebook-icon" d="M708.309,298.941V424.251a12.373,12.373,0,0,0,3.6,4.644,16.287,16.287,0,0,0,5.959,2.338h72.025V375.744H764.533V356.268h22.783V325.032s3.858-13.78,15.434-18.374,30.868,0,30.868,0v18.374s-11.116-2.572-18.006,0-9.554,9.554-9.554,9.554v21.681h24.621l-5.88,19.476H808.63v55.489h31.235a22.72,22.72,0,0,0,6.9-4.359,14.909,14.909,0,0,0,3.393-6.3V301.146s.355-5.59-2.218-8.9-8.072-4.332-8.072-4.332h-122a14.754,14.754,0,0,0-6.122,3.879A19.628,19.628,0,0,0,708.309,298.941Z" transform="translate(-707.809 -287.417)" fill="none" stroke="#fff" stroke-width="1"/>
</svg>
