<svg xmlns="http://www.w3.org/2000/svg" width="19.866" height="30.987" viewBox="0 0 19.866 30.987">
  <defs>
    <style>
      .cls-1 {
        fill: none;
        stroke: #c25000;
        stroke-linecap: round;
      }
    </style>
  </defs>
  <g id="Other_drinks_icon" data-name="Other drinks icon" transform="translate(-593.878 -762.808)">
    <g id="Flute" transform="translate(598.58 775.135)">
      <line id="Line_16" data-name="Line 16" class="cls-1" x2="3.627" transform="translate(0.907 0)"/>
      <line id="Line_19" data-name="Line 19" class="cls-1" y1="7.254" transform="translate(2.72 8.895)"/>
      <line id="Line_20" data-name="Line 20" class="cls-1" y1="1.813" x2="2.493" transform="translate(0 16.148)"/>
      <path id="Path_11" data-name="Path 11" class="cls-1" d="M.907,3.627.4,1.587,0,0" transform="translate(4.533 0)"/>
      <line id="Line_22" data-name="Line 22" class="cls-1" y1="4.987" x2="2.72" transform="translate(2.72 3.844)"/>
      <line id="Line_25" data-name="Line 25" class="cls-1" x2="5.44" transform="translate(0 17.962)"/>
      <line id="Line_34" data-name="Line 34" class="cls-1" x1="2.72" y1="4.987" transform="translate(0 3.844)"/>
      <line id="Line_35" data-name="Line 35" class="cls-1" y1="3.627" x2="0.907" transform="translate(0 0)"/>
      <line id="Line_36" data-name="Line 36" class="cls-1" x1="2.493" y1="1.813" transform="translate(2.947 16.148)"/>
    </g>
    <g id="Bowl">
      <line id="Line_28" data-name="Line 28" class="cls-1" x2="9.52" transform="translate(603.567 780.274)"/>
      <line id="Line_31" data-name="Line 31" class="cls-1" x2="5.893" transform="translate(601.3 787.981)"/>
      <line id="Line_32" data-name="Line 32" class="cls-1" x1="3.627" y2="4.533" transform="translate(608.554 775.74)"/>
      <line id="Line_33" data-name="Line 33" class="cls-1" x1="0.907" transform="translate(612.18 775.74)"/>
      <path id="Path_4" data-name="Path 4" class="cls-1" d="M-.494,7.684,1.779,6.076,3.913,3.47,5.394,0" transform="translate(607.693 780.274)"/>
    </g>
    <g id="Bottle">
      <line id="Line_9" data-name="Line 9" class="cls-1" y1="14.507" transform="translate(594.5 773.474)"/>
      <line id="Line_12" data-name="Line 12" class="cls-1" x1="3.627" transform="translate(596.313 763.5)"/>
      <path id="Path_7" data-name="Path 7" class="cls-1" d="M0,0,.538.819,0,2.925V6.347" transform="translate(599.94 763.5)"/>
      <line id="Line_15" data-name="Line 15" class="cls-1" y1="1.36" transform="translate(601.754 773.474)"/>
      <path id="Path_10" data-name="Path 10" class="cls-1" d="M.907,1.813l-.722-.75L0,0" transform="translate(594.5 787.981)"/>
      <line id="Line_27" data-name="Line 27" class="cls-1" x1="5.44" transform="translate(595.407 789.794)"/>
      <path id="Path_3" data-name="Path 3" class="cls-1" d="M3,0" transform="translate(610.541 780.274)"/>
      <path id="Path_6" data-name="Path 6" class="cls-1" d="M0,0,1.194,1.557l.619,2.07" transform="translate(599.94 769.847)"/>
      <path id="Path_8" data-name="Path 8" class="cls-1" d="M.538,0,0,.819.538,2.925V6.347" transform="translate(595.775 763.5)"/>
      <path id="Path_9" data-name="Path 9" class="cls-1" d="M1.813,0,.619,1.557,0,3.627" transform="translate(594.5 769.847)"/>
    </g>
  </g>
</svg>
