<svg xmlns="http://www.w3.org/2000/svg" width="31.75" height="27.069" viewBox="0 0 31.75 27.069">
  <defs>
    <style>
      .cls-1, .cls-2 {
        stroke: none;
      }

      .cls-2 {
        fill: #9e0a0a;
      }
    </style>
  </defs>
  <g id="Snacks_icon" data-name="Snacks icon" transform="translate(-674.859 -735.347)">
    <g id="Chips">
      <g id="Polygon_6" data-name="Polygon 6" transform="translate(685.743 741.718) rotate(3)">
        <path class="cls-1" d="M 10.10846900939941 8.5 L 0.8915305733680725 8.5 L 5.5 0.9588682055473328 L 10.10846900939941 8.5 Z"/>
        <path class="cls-2" d="M 5.5 1.917726516723633 L 1.783055305480957 8 L 9.216944694519043 8 L 5.5 1.917726516723633 M 5.5 0 L 11 9 L 0 9 L 5.5 0 Z"/>
      </g>
      <g id="Polygon_7" data-name="Polygon 7" transform="translate(697.691 738.77) rotate(42)">
        <path class="cls-1" d="M 11.11690044403076 9.5 L 0.8830999732017517 9.5 L 6 0.971833348274231 L 11.11690044403076 9.5 Z"/>
        <path class="cls-2" d="M 6 1.943650245666504 L 1.766189575195312 9 L 10.23381042480469 9 L 6 1.943650245666504 M 6 0 L 12 10 L 0 10 L 6 0 Z"/>
      </g>
      <g id="Polygon_8" data-name="Polygon 8" transform="translate(690.568 736.187) rotate(10)">
        <path class="cls-1" d="M 13.50764465332031 11.83803939819336 L 0.8700124621391296 11.83803939819336 L 7.188828468322754 0.9931866526603699 L 13.50764465332031 11.83803939819336 Z"/>
        <path class="cls-2" d="M 7.188828468322754 1.986346244812012 L 1.740010261535645 11.33803939819336 L 12.63764667510986 11.33803939819336 L 7.188828468322754 1.986346244812012 M 7.188828468322754 0 L 14.37765884399414 12.33803939819336 L -1.9073486328125e-06 12.33803939819336 L 7.188828468322754 0 Z"/>
      </g>
      <g id="Polygon_9" data-name="Polygon 9" transform="translate(674.859 740.082) rotate(-18)">
        <path class="cls-1" d="M 14.46973896026611 13.21561813354492 L 0.8519802689552307 13.21561813354492 L 7.66085958480835 1.025341629981995 L 14.46973896026611 13.21561813354492 Z"/>
        <path class="cls-2" d="M 7.66085958480835 2.050703048706055 L 1.703970909118652 12.71561813354492 L 13.61774826049805 12.71561813354492 L 7.66085958480835 2.050703048706055 M 7.66085958480835 -1.9073486328125e-06 L 15.3217191696167 13.71561813354492 L 0 13.71561813354492 L 7.66085958480835 -1.9073486328125e-06 Z"/>
      </g>
      <g id="Polygon_11" data-name="Polygon 11" transform="translate(701.015 748.104) rotate(176)">
        <path class="cls-1" d="M 9.436623573303223 8.421820640563965 L 0.8660548329353333 8.421820640563965 L 5.151339054107666 0.9999588131904602 L 9.436623573303223 8.421820640563965 Z"/>
        <path class="cls-2" d="M 5.151339054107666 1.999899387359619 L 1.732100486755371 7.921820640563965 L 8.570577621459961 7.921820640563965 L 5.151339054107666 1.999899387359619 M 5.151339054107666 9.5367431640625e-07 L 10.30267906188965 8.921820640563965 L -9.5367431640625e-07 8.921820640563965 L 5.151339054107666 9.5367431640625e-07 Z"/>
      </g>
      <g id="Polygon_5" data-name="Polygon 5" transform="matrix(0.966, 0.259, -0.259, 0.966, 682.097, 740.726)">
        <path class="cls-1" d="M 11.21558666229248 9.405820846557617 L 0.8915281891822815 9.405820846557617 L 6.053557395935059 0.9588682055473328 L 11.21558666229248 9.405820846557617 Z"/>
        <path class="cls-2" d="M 6.053557395935059 1.917726039886475 L 1.783052444458008 8.905820846557617 L 10.32406234741211 8.905820846557617 L 6.053557395935059 1.917726039886475 M 6.053557395935059 0 L 12.10711765289307 9.905820846557617 L -2.86102294921875e-06 9.905820846557617 L 6.053557395935059 0 Z"/>
      </g>
      <g id="Polygon_10" data-name="Polygon 10" transform="translate(684.827 736.347) rotate(7)">
        <path class="cls-1" d="M 10.1862964630127 9.381182670593262 L 0.8519785404205322 9.381182670593262 L 5.519137382507324 1.025345325469971 L 10.1862964630127 9.381182670593262 Z"/>
        <path class="cls-2" d="M 5.519137382507324 2.050687789916992 L 1.703959465026855 8.881182670593262 L 9.334315299987793 8.881182670593262 L 5.519137382507324 2.050687789916992 M 5.519137382507324 2.86102294921875e-06 L 11.0382776260376 9.881182670593262 L -2.86102294921875e-06 9.881182670593262 L 5.519137382507324 2.86102294921875e-06 Z"/>
      </g>
    </g>
    <g id="Bowl" transform="translate(679 748)">
      <path class="cls-1" d="M 12.54712009429932 13.91601753234863 C 7.45473575592041 13.91601753234863 1.888881683349609 12.12248992919922 0.5 11.64585113525391 L 0.5 0.4999978244304657 L 23.5 0.4999978244304657 L 23.5 11.66675567626953 C 22.29232978820801 12.15486240386963 17.58462142944336 13.91601753234863 12.54712009429932 13.91601753234863 Z"/>
      <path class="cls-2" d="M 1 0.9999980926513672 L 1 11.28693771362305 C 2.77604866027832 11.87584495544434 7.868877410888672 13.41601753234863 12.54712009429932 13.41601753234863 C 17.13769721984863 13.41601753234863 21.45901489257812 11.9225378036499 23 11.32674789428711 L 23 0.9999980926513672 L 1 0.9999980926513672 M 0 -1.9073486328125e-06 L 24 -1.9073486328125e-06 L 24 11.99999809265137 C 24 11.99999809265137 18.547119140625 14.41601753234863 12.54712009429932 14.41601753234863 C 6.547119140625 14.41601753234863 0 11.99999809265137 0 11.99999809265137 L 0 -1.9073486328125e-06 Z"/>
    </g>
  </g>
</svg>
