<svg xmlns="http://www.w3.org/2000/svg" width="145.331" height="144.397" viewBox="0 0 145.331 144.397">
  <g id="instagram-icon" transform="translate(-501.037 -241.391)">
    <path id="Path_1" data-name="Path 1" d="M501.537,255.4V371.578a30.77,30.77,0,0,0,5.616,10.26,9.809,9.809,0,0,0,8.618,3.283H629.452s6.977.1,11.081-3.283,5.335-10.26,5.335-10.26V257.9s-1.231-7.49-5.335-11.491-11.081-4.514-11.081-4.514H515.772a15.291,15.291,0,0,0-8.618,4.514A29.345,29.345,0,0,0,501.537,255.4Z" transform="translate(0 0)" fill="none" stroke="#707070" stroke-width="1"/>
    <circle id="Ellipse_1" data-name="Ellipse 1" cx="41.322" cy="41.322" r="41.322" transform="translate(532.766 272.725)" fill="none" stroke="#707070" stroke-width="1"/>
    <circle id="Ellipse_2" data-name="Ellipse 2" cx="12.285" cy="12.285" r="12.285" transform="translate(607.592 254.856)" fill="none" stroke="#707070" stroke-width="1"/>
  </g>
</svg>
