<svg xmlns="http://www.w3.org/2000/svg" width="26.157" height="104.308" viewBox="0 0 26.157 104.308">
  <g id="Champagneflute" transform="translate(-528.208 -33.671)">
    <g id="Path_22" data-name="Path 22" transform="translate(522.198 48.165)" fill="none">
      <path d="M30.416-14.494s4.618,52.576-11.5,52.576-11-52.576-11-52.576Z" stroke="none"/>
      <path d="M 8.837484359741211 -13.49365615844727 C 8.612331390380859 -10.80931854248047 8.000505447387695 -2.503833770751953 8.182712554931641 6.585922241210938 C 8.471662521362305 21.00117301940918 10.59184265136719 30.78903198242188 14.31405258178711 34.89135360717773 C 15.65182304382324 36.3657341003418 17.15762329101562 37.08245086669922 18.91748237609863 37.08245086669922 C 20.6806526184082 37.08245086669922 22.19638252258301 36.36348342895508 23.55130195617676 34.88444519042969 C 27.31150245666504 30.77980422973633 29.52514266967773 20.99620246887207 29.95291137695312 6.591312408447266 C 30.22258567810059 -2.489643096923828 29.69122695922852 -10.79749298095703 29.49117279052734 -13.49365615844727 L 8.837484359741211 -13.49365615844727 M 7.921993255615234 -14.49365615844727 L 30.41552352905273 -14.49365615844727 C 30.41552352905273 -14.49365615844727 35.03337097167969 38.08245086669922 18.91748237609863 38.08245086669922 C 2.801593780517578 38.08245086669922 7.921993255615234 -14.49365615844727 7.921993255615234 -14.49365615844727 Z" stroke="none" fill="#7f8076"/>
    </g>
    <path id="Path_23" data-name="Path 23" d="M0,0V48.374" transform="translate(541.286 85.248)" fill="none" stroke="#7f8076" stroke-width="1"/>
    <g id="Ellipse_2" data-name="Ellipse 2" transform="translate(528.208 133.223)" fill="none" stroke="#7f8076" stroke-width="1">
      <ellipse cx="13.079" cy="2.378" rx="13.079" ry="2.378" stroke="none"/>
      <ellipse cx="13.079" cy="2.378" rx="12.579" ry="1.878" fill="none"/>
    </g>
  </g>
</svg>
