<svg xmlns="http://www.w3.org/2000/svg" width="59" height="76.118" viewBox="0 0 59 76.118">
  <g id="Coupe" transform="translate(-441 -60.882)">
    <g id="Path_20" data-name="Path 20" transform="translate(438.581 50.591)" fill="none">
      <path d="M60.088,10.291S67.23,34.1,32.159,34.1s-26.925-23.8-26.925-23.8Z" stroke="none"/>
      <path d="M 5.988880157470703 11.29095840454102 C 5.474754333496094 13.32243919372559 4.344108581542969 19.54992866516113 8.07177734375 24.76559829711914 C 9.837348937988281 27.23594665527344 12.48648834228516 29.18775749206543 15.94561004638672 30.56682777404785 C 20.15351867675781 32.24440765380859 25.60842895507812 33.09501647949219 32.15882873535156 33.09501647949219 C 38.74652099609375 33.09501647949219 44.26329803466797 32.23457717895508 48.55593872070312 30.53760719299316 C 52.0866584777832 29.14182662963867 54.82333755493164 27.16616821289062 56.68993759155273 24.66549682617188 C 57.76150894165039 23.22992706298828 58.55768966674805 21.60492706298828 59.05635833740234 19.83562660217285 C 59.45895767211914 18.40719795227051 59.67057800292969 16.8798770904541 59.68532943725586 15.29608726501465 C 59.70166397094727 13.54261016845703 59.46979904174805 12.10153579711914 59.30065155029297 11.29095840454102 L 5.988880157470703 11.29095840454102 M 5.234279632568359 10.29095840454102 L 60.08794021606445 10.29095840454102 C 60.08794021606445 10.29095840454102 67.22996520996094 34.09501647949219 32.15882873535156 34.09501647949219 C -2.912322998046875 34.09501647949219 5.234279632568359 10.29095840454102 5.234279632568359 10.29095840454102 Z" stroke="none" fill="#7f8076"/>
    </g>
    <path id="Path_21" data-name="Path 21" d="M0,0V48.374" transform="translate(470.724 84.686)" fill="none" stroke="#7f8076" stroke-width="1"/>
    <g id="Ellipse_1" data-name="Ellipse 1" transform="translate(441 132)" fill="none" stroke="#7f8076" stroke-width="1">
      <ellipse cx="29.5" cy="2.5" rx="29.5" ry="2.5" stroke="none"/>
      <ellipse cx="29.5" cy="2.5" rx="29" ry="2" fill="none"/>
    </g>
  </g>
</svg>
