<svg xmlns="http://www.w3.org/2000/svg" width="49.211" height="100.603" viewBox="0 0 49.211 100.603">
  <g id="Highball" transform="translate(0.029)" fill="none">
    <path d="M-.011,0H49.1V90.476S51.817,100.6,25.116,100.6-.011,90.476-.011,90.476Z" stroke="none"/>
    <path d="M 0.9886360168457031 0.9999923706054688 L 0.9886360168457031 90.47567749023438 L 0.9935989379882812 90.53867340087891 L 0.9779205322265625 90.62307739257812 C 0.963134765625 90.75995635986328 0.8439598083496094 92.245849609375 2.375209808349609 93.97998046875 C 3.738609313964844 95.52400970458984 5.964012145996094 96.78044891357422 8.989597320556641 97.71439361572266 C 13.05036926269531 98.96787261962891 18.47606468200684 99.60344696044922 25.11594390869141 99.60344696044922 C 31.70645141601562 99.60344696044922 37.02873229980469 98.97748565673828 40.93494415283203 97.74296569824219 C 43.83533096313477 96.82632446289062 45.90962219238281 95.59651184082031 47.10023880004883 94.08767700195312 C 48.46182632446289 92.36214447021484 48.16704940795898 90.86224365234375 48.13733291625977 90.72927093505859 L 48.10482406616211 90.62071228027344 L 48.10482406616211 0.9999923706054688 L 0.9886360168457031 0.9999923706054688 M -0.01136398315429688 -7.62939453125e-06 C -0.01136398315429688 -7.62939453125e-06 13.17402267456055 -7.62939453125e-06 25.45307731628418 -7.62939453125e-06 C 37.73211669921875 -7.62939453125e-06 49.10482406616211 -7.62939453125e-06 49.10482406616211 -7.62939453125e-06 L 49.10482406616211 90.47567749023438 C 49.10482406616211 90.47567749023438 51.8167724609375 100.6034469604492 25.11594390869141 100.6034469604492 C -1.584884643554688 100.6034469604492 -0.01136398315429688 90.47567749023438 -0.01136398315429688 90.47567749023438 L -0.01136398315429688 -7.62939453125e-06 Z" stroke="none" fill="#7f8076"/>
  </g>
</svg>
