<svg xmlns="http://www.w3.org/2000/svg" width="50.063" height="68.62" viewBox="0 0 50.063 68.62">
  <g id="Irishcoffeemug" transform="translate(-678.593 -68.38)">
    <g id="Path_27" data-name="Path 27" transform="translate(724.084 116.034) rotate(180)" fill="none">
      <path d="M9.548,1.928S11.647,0,23.02,0s14.6,1.928,14.6,1.928l7.871,45.726H0Z" stroke="none"/>
      <path d="M 23.01955604553223 1 C 17.57370567321777 1 14.385986328125 1.455692291259766 12.6707763671875 1.837970733642578 C 11.44118118286133 2.112018585205078 10.76451110839844 2.389671325683594 10.43923187255859 2.552139282226562 L 1.230373382568359 46.65436172485352 L 44.30492401123047 46.65436172485352 L 36.72504043579102 2.616783142089844 C 36.29141998291016 2.444370269775391 35.47538757324219 2.168544769287109 34.15481567382812 1.895000457763672 C 32.1837272644043 1.486701965332031 28.65183639526367 1 23.01955604553223 1 M 23.01955604553223 0 C 34.39249420166016 0 37.62117767333984 1.927902221679688 37.62117767333984 1.927902221679688 L 45.49175643920898 47.65436172485352 L -3.814697265625e-06 47.65436172485352 L 9.548007965087891 1.927902221679688 C 9.548007965087891 1.927902221679688 11.6466178894043 0 23.01955604553223 0 Z" stroke="none" fill="#7f8076"/>
    </g>
    <g id="Ellipse_4" data-name="Ellipse 4" transform="translate(686.373 132.244)" fill="none" stroke="#7f8076" stroke-width="1">
      <ellipse cx="13.079" cy="2.378" rx="13.079" ry="2.378" stroke="none"/>
      <ellipse cx="13.079" cy="2.378" rx="12.579" ry="1.878" fill="none"/>
    </g>
    <path id="Path_28" data-name="Path 28" d="M.689,0s8.3,2.138,8.3,7.786S-3.646,22-3.646,22" transform="translate(719.169 84.524)" fill="none" stroke="#7f8076" stroke-width="1"/>
    <line id="Line_43" data-name="Line 43" y2="17" transform="translate(697.5 115.5)" fill="none" stroke="#7f8076" stroke-width="1"/>
    <line id="Line_44" data-name="Line 44" y2="17" transform="translate(702.119 115.5)" fill="none" stroke="#7f8076" stroke-width="1"/>
  </g>
</svg>
