<svg xmlns="http://www.w3.org/2000/svg" width="59.639" height="68.53" viewBox="0 0 59.639 68.53">
  <g id="Lowball" transform="translate(0.029)" fill="none">
    <path d="M-.008,0H59.517V61.631s3.287,6.9-29.072,6.9-30.452-6.9-30.452-6.9Z" stroke="none"/>
    <path d="M 0.9923515319824219 1 L 0.9923515319824219 61.63098526000977 L -0.007648468017578125 61.63098526000977 L 0.9562110900878906 61.89740371704102 C 0.9562110900878906 61.89740371704102 0.9688034057617188 61.83889007568359 0.9708099365234375 61.83232498168945 C 0.9713401794433594 61.82892608642578 0.9718589782714844 61.82577514648438 0.9716987609863281 61.82783508300781 C 0.9712181091308594 61.83372497558594 0.96923828125 61.86592483520508 0.9774398803710938 61.92118453979492 C 0.9937896728515625 62.03141403198242 1.056610107421875 62.26283264160156 1.2935791015625 62.57418441772461 C 1.81011962890625 63.25287246704102 3.351810455322266 64.55438232421875 7.873359680175781 65.64554595947266 C 13.05464935302734 66.89591217041016 20.64862060546875 67.5299072265625 30.44433975219727 67.5299072265625 C 52.58206939697266 67.5299072265625 57.31908798217773 64.27699279785156 58.32817077636719 62.87842559814453 C 58.66902923583984 62.4059944152832 58.61562347412109 62.09576416015625 58.59677124023438 62.02518081665039 L 58.51665878295898 61.85701370239258 L 58.51665878295898 1 L 0.9923515319824219 1 M -0.007648468017578125 0 C -0.007648468017578125 0 15.97182846069336 0 30.85290908813477 0 C 45.73398971557617 0 59.51665878295898 0 59.51665878295898 0 L 59.51665878295898 61.63098526000977 C 59.51665878295898 61.63098526000977 62.80329895019531 68.5299072265625 30.44433975219727 68.5299072265625 C -1.914619445800781 68.5299072265625 -0.007648468017578125 61.63098526000977 -0.007648468017578125 61.63098526000977 L -0.007648468017578125 0 Z" stroke="none" fill="#7f8076"/>
  </g>
</svg>
