<svg xmlns="http://www.w3.org/2000/svg" width="54.26" height="78.458" viewBox="0 0 54.26 78.458">
  <g id="Monkeymug" transform="translate(54.251 75.284) rotate(180)" fill="none">
    <path d="M11.379,0s2.5-3.174,16.068-3.174S44.863,0,44.863,0l9.388,75.284H-.01Z" stroke="none"/>
    <path d="M 27.447021484375 -2.174079895019531 C 20.87150955200195 -2.174079895019531 17.05706787109375 -1.405563354492188 15.01504516601562 -0.7608642578125 C 13.4163818359375 -0.2561492919921875 12.63020706176758 0.2512130737304688 12.31521987915039 0.4958877563476562 L 1.153121948242188 74.28350830078125 L 53.11826324462891 74.28350830078125 L 43.92762756347656 0.5796279907226562 C 43.46961975097656 0.3101043701171875 42.47190093994141 -0.1939544677734375 40.73224258422852 -0.6943588256835938 C 38.38546752929688 -1.369400024414062 34.17563247680664 -2.174079895019531 27.447021484375 -2.174079895019531 M 27.447021484375 -3.174079895019531 C 41.01207733154297 -3.174079895019531 44.86309051513672 0 44.86309051513672 0 L 54.25069808959961 75.28350830078125 L -0.009532928466796875 75.28350830078125 L 11.37885665893555 0 C 11.37885665893555 0 13.88196563720703 -3.174079895019531 27.447021484375 -3.174079895019531 Z" stroke="none" fill="#7f8076"/>
  </g>
</svg>
