<svg xmlns="http://www.w3.org/2000/svg" width="26.415" height="68.62" viewBox="0 0 26.415 68.62">
  <g id="Nickandnora" transform="translate(-629.045 -62.251)">
    <g id="Path_24" data-name="Path 24" transform="translate(612.372 50.412)" fill="none">
      <path d="M41.742,11.84S48.9,36.382,29.866,36.528,17.99,11.84,17.99,11.84Z" stroke="none"/>
      <path d="M 18.76408386230469 12.839599609375 C 18.47761535644531 14.02131652832031 17.94226455688477 16.5280704498291 17.74704742431641 19.44752883911133 C 17.59004974365234 21.79543876647949 17.68055725097656 23.94650840759277 18.01606750488281 25.84097862243652 C 18.42490768432617 28.14952850341797 19.19966888427734 30.07337951660156 20.31880950927734 31.55908966064453 C 21.2503662109375 32.79578018188477 22.4449462890625 33.75479125976562 23.86936950683594 34.40947723388672 C 25.48544692993164 35.15226745605469 27.44699859619141 35.52888870239258 29.69951820373535 35.52888870239258 C 29.75225830078125 35.52888870239258 29.80530738830566 35.52869033813477 29.85851860046387 35.52827835083008 C 32.16531753540039 35.51057815551758 34.17147064208984 35.1107292175293 35.82124710083008 34.33984756469727 C 37.27378082275391 33.66112899780273 38.4887580871582 32.67457962036133 39.43244934082031 31.40760803222656 C 40.54570770263672 29.9129695892334 41.31564712524414 27.99106979370117 41.72086715698242 25.69528961181641 C 42.05320739746094 23.8124885559082 42.14174652099609 21.68023872375488 41.98405838012695 19.35775947570801 C 41.78836822509766 16.47579574584961 41.25614929199219 14.00740814208984 40.97012329101562 12.839599609375 L 18.76408386230469 12.839599609375 M 17.98962783813477 11.839599609375 L 41.74245834350586 11.839599609375 C 41.74245834350586 11.839599609375 48.8953857421875 36.38222885131836 29.86618804931641 36.52824783325195 C 10.83709335327148 36.67416763305664 17.98962783813477 11.839599609375 17.98962783813477 11.839599609375 Z" stroke="none" fill="#7f8076"/>
    </g>
    <path id="Path_25" data-name="Path 25" d="M0,0V39.881" transform="translate(642.2 86.941)" fill="none" stroke="#7f8076" stroke-width="1"/>
    <g id="Ellipse_3" data-name="Ellipse 3" transform="translate(629.302 126.505)" fill="none" stroke="#7f8076" stroke-width="1">
      <ellipse cx="13.079" cy="2.183" rx="13.079" ry="2.183" stroke="none"/>
      <ellipse cx="13.079" cy="2.183" rx="12.579" ry="1.683" fill="none"/>
    </g>
  </g>
</svg>
