<svg xmlns="http://www.w3.org/2000/svg" width="54.365" height="55.57" viewBox="0 0 54.365 55.57">
  <g id="Punchglass" transform="translate(0.029)" fill="none">
    <path d="M11.379,0H44.863l9.388,49.976s3,5.594-26.5,5.594S-.01,49.976-.01,49.976Z" stroke="none"/>
    <path d="M 12.17661285400391 1.000003814697266 L 0.9734001159667969 50.16313171386719 C 0.9990730285644531 50.29242324829102 1.296043395996094 51.2672119140625 4.364650726318359 52.29294204711914 C 6.366340637207031 52.96203231811523 9.094989776611328 53.49319458007812 12.47481918334961 53.87165451049805 C 16.61273956298828 54.33500289916992 21.75186157226562 54.56994247436523 27.74942016601562 54.56994247436523 C 36.38372039794922 54.56994247436523 43.03897094726562 54.08874130249023 47.53031158447266 53.13970184326172 C 51.48846054077148 52.3033332824707 52.74948120117188 51.31977462768555 53.14886856079102 50.80792236328125 C 53.33000183105469 50.57579040527344 53.33904266357422 50.43244934082031 53.33562469482422 50.38519287109375 L 53.29636001586914 50.31187438964844 L 44.033447265625 1.000003814697266 L 12.17661285400391 1.000003814697266 M 11.37884902954102 3.814697265625e-06 C 11.37884902954102 3.814697265625e-06 14.55680084228516 3.814697265625e-06 28.12186050415039 3.814697265625e-06 C 41.68692016601562 3.814697265625e-06 44.86309051513672 3.814697265625e-06 44.86309051513672 3.814697265625e-06 L 54.25070190429688 49.97570419311523 C 54.25070190429688 49.97570419311523 57.24668884277344 55.56994247436523 27.74942016601562 55.56994247436523 C -1.747848510742188 55.56994247436523 -0.00952911376953125 49.97570419311523 -0.00952911376953125 49.97570419311523 L 11.37884902954102 3.814697265625e-06 Z" stroke="none" fill="#7f8076"/>
  </g>
</svg>
