<svg xmlns="http://www.w3.org/2000/svg" width="52.288" height="36.853" viewBox="0 0 52.288 36.853">
  <g id="Shortsnack" transform="translate(0.029)" fill="none">
    <path d="M-.01,0H52.177V33.143s2.882,3.71-25.489,3.71-26.7-3.71-26.7-3.71Z" stroke="none"/>
    <path d="M 0.9897308349609375 1 L 0.9897308349609375 33.13720321655273 C 1.204841613769531 33.34648132324219 2.125705718994141 34.01020812988281 5.541610717773438 34.62386322021484 C 10.08206176757812 35.43952178955078 17.19683074951172 35.85310363769531 26.68827247619629 35.85310363769531 C 35.70737457275391 35.85310363769531 42.46939086914062 35.47859191894531 46.78650283813477 34.73997116088867 C 49.88984298706055 34.20901489257812 50.88197708129883 33.63081741333008 51.17719268798828 33.38777542114258 L 51.17719268798828 1 L 0.9897308349609375 1 M -0.0102691650390625 0 C -0.0102691650390625 0 13.9996223449707 0 27.04648208618164 0 C 40.09335327148438 0 52.17719268798828 0 52.17719268798828 0 L 52.17719268798828 33.14309310913086 C 52.17719268798828 33.14309310913086 55.05872344970703 36.85310363769531 26.68827247619629 36.85310363769531 C -1.682186126708984 36.85310363769531 -0.0102691650390625 33.14309310913086 -0.0102691650390625 33.14309310913086 L -0.0102691650390625 0 Z" stroke="none" fill="#7f8076"/>
  </g>
</svg>
