<svg xmlns="http://www.w3.org/2000/svg" width="26.57" height="27.858" viewBox="0 0 26.57 27.858">
  <g id="Smallsnack" transform="translate(0.029)" fill="none">
    <path d="M-.019,0H26.5V25.053s1.464,2.8-12.952,2.8-13.567-2.8-13.567-2.8Z" stroke="none"/>
    <path d="M 0.9805927276611328 1.000003814697266 L 0.9805927276611328 25.04953002929688 C 1.224815368652344 25.32741165161133 3.050662994384766 26.85766220092773 13.54751205444336 26.85766220092773 C 17.9428825378418 26.85766220092773 21.26268196105957 26.5966625213623 23.41469192504883 26.0819034576416 C 24.85083389282227 25.73838043212891 25.34623908996582 25.3793888092041 25.4997615814209 25.22953414916992 L 25.4997615814209 1.000003814697266 L 0.9805927276611328 1.000003814697266 M -0.01940727233886719 3.814697265625e-06 C -0.01940727233886719 3.814697265625e-06 7.099742889404297 3.814697265625e-06 13.72954177856445 3.814697265625e-06 C 20.35933303833008 3.814697265625e-06 26.4997615814209 3.814697265625e-06 26.4997615814209 3.814697265625e-06 L 26.4997615814209 25.05322265625 C 26.4997615814209 25.05322265625 27.96402168273926 27.85766220092773 13.54751205444336 27.85766220092773 C -0.8689975738525391 27.85766220092773 -0.01940727233886719 25.05322265625 -0.01940727233886719 25.05322265625 L -0.01940727233886719 3.814697265625e-06 Z" stroke="none" fill="#7f8076"/>
  </g>
</svg>
