<svg xmlns="http://www.w3.org/2000/svg" width="52.288" height="47.849" viewBox="0 0 52.288 47.849">
  <g id="tallsnack" transform="translate(0.029)" fill="none">
    <path d="M-.01,0H52.177V43.032s2.882,4.817-25.489,4.817S-.01,43.032-.01,43.032Z" stroke="none"/>
    <path d="M 0.9897308349609375 1 L 0.9897308349609375 43.19969940185547 C 1.096809387207031 43.40178680419922 1.709095001220703 44.23204040527344 4.761234283447266 45.05093383789062 C 9.208061218261719 46.24403381347656 16.58538436889648 46.84898376464844 26.68827247619629 46.84898376464844 C 36.50691223144531 46.84898376464844 43.6116828918457 46.27679061889648 47.80521392822266 45.14830017089844 C 50.69374847412109 44.37099075317383 51.17717742919922 43.59141540527344 51.24820327758789 43.4269905090332 L 51.17719268798828 43.30828094482422 L 51.17719268798828 1 L 0.9897308349609375 1 M -0.0102691650390625 0 C -0.0102691650390625 0 13.9996223449707 0 27.04648208618164 0 C 40.09335327148438 0 52.17719268798828 0 52.17719268798828 0 L 52.17719268798828 43.03201293945312 C 52.17719268798828 43.03201293945312 55.05872344970703 47.84898376464844 26.68827247619629 47.84898376464844 C -1.682186126708984 47.84898376464844 -0.0102691650390625 43.03201293945312 -0.0102691650390625 43.03201293945312 L -0.0102691650390625 0 Z" stroke="none" fill="#7f8076"/>
  </g>
</svg>
