<svg xmlns="http://www.w3.org/2000/svg" width="31.682" height="92.57" viewBox="0 0 31.682 92.57">
  <g id="Wineglass" transform="translate(-579.994 -45.409)">
    <g id="Path_32" data-name="Path 32" transform="translate(567.751 61.406)" fill="none">
      <path d="M36.66-16s21.146,39.784-8.718,39.784S20-16,20-16Z" stroke="none"/>
      <path d="M 20.5971794128418 -14.99639892578125 C 19.79446029663086 -13.45983505249023 17.39794921875 -8.679468154907227 15.5638542175293 -3.027109146118164 C 14.2656135559082 0.9738502502441406 13.50351333618164 4.611490249633789 13.29873275756836 7.784780502319336 C 13.04922103881836 11.65099048614502 13.63180160522461 14.81155014038086 15.03028106689453 17.17867088317871 C 16.06366348266602 18.92781066894531 17.57614135742188 20.28367042541504 19.52570343017578 21.20859146118164 C 21.73447418212891 22.2564811706543 24.56613159179688 22.78779983520508 27.9420223236084 22.78779983520508 C 31.33818244934082 22.78779983520508 34.19454956054688 22.24998092651367 36.43179321289062 21.18927001953125 C 38.40822219848633 20.25222015380859 39.95060348510742 18.87845039367676 41.01609039306641 17.10614013671875 C 42.44263458251953 14.73328018188477 43.07447052001953 11.57460021972656 42.89409255981445 7.717860221862793 C 42.74609375 4.553630352020264 42.05442047119141 0.9291706085205078 40.83830261230469 -3.054829597473145 C 39.12193298339844 -8.677597045898438 36.82764434814453 -13.4459285736084 36.04874420166016 -14.99639892578125 L 20.5971794128418 -14.99639892578125 M 19.99649047851562 -15.99639892578125 L 36.66015243530273 -15.99639892578125 C 36.66015243530273 -15.99639892578125 57.8056526184082 23.78779983520508 27.9420223236084 23.78779983520508 C -1.921619415283203 23.78779983520508 19.99649047851562 -15.99639892578125 19.99649047851562 -15.99639892578125 Z" stroke="none" fill="#7f8076"/>
    </g>
    <path id="Path_33" data-name="Path 33" d="M0,0V48.374" transform="translate(595.416 85.193)" fill="none" stroke="#7f8076" stroke-width="1"/>
    <g id="Ellipse_6" data-name="Ellipse 6" transform="translate(582.519 133.223)" fill="none" stroke="#7f8076" stroke-width="1">
      <ellipse cx="13.079" cy="2.378" rx="13.079" ry="2.378" stroke="none"/>
      <ellipse cx="13.079" cy="2.378" rx="12.579" ry="1.878" fill="none"/>
    </g>
  </g>
</svg>
